<svg width="24" height="24" viewBox="0 0 24 24" fill="none" xmlns="http://www.w3.org/2000/svg">
<path d="M9.16638 3.84756L4.42627 7.35437C3.15181 8.29723 2.4 9.78862 2.4 11.3739V17.8001C2.4 19.457 3.74315 20.8001 5.4 20.8001H7.75319C8.85776 20.8001 9.75319 19.9047 9.75319 18.8001V15.1445C9.75319 13.7908 10.8506 12.6934 12.2043 12.6934C13.5579 12.6934 14.6553 13.7908 14.6553 15.1445V18.8001C14.6553 19.9047 15.5508 20.8001 16.6553 20.8001H18.6C20.2569 20.8001 21.6 19.4569 21.6 17.8001V11.3101C21.6 9.76077 20.8818 8.29898 19.6554 7.35223L15.1955 3.90928C13.4256 2.54298 10.9638 2.51778 9.16638 3.84756Z" fill="white"/>
</svg>
