<svg width="24" height="24" viewBox="0 0 24 24" fill="none" xmlns="http://www.w3.org/2000/svg">
<path d="M16.6571 11.2551C16.5692 11.2129 16.4799 11.1724 16.3895 11.1336C16.2321 8.23223 14.6467 6.57121 11.9847 6.55421C11.9726 6.55413 11.9606 6.55413 11.9486 6.55413C10.3564 6.55413 9.03214 7.23377 8.21709 8.4705L9.68111 9.47478C10.29 8.55099 11.2456 8.35406 11.9493 8.35406C11.9574 8.35406 11.9656 8.35406 11.9736 8.35413C12.8501 8.35972 13.5115 8.61456 13.9396 9.11154C14.2511 9.47335 14.4595 9.97333 14.5627 10.6043C13.7855 10.4722 12.9451 10.4316 12.0467 10.4831C9.51575 10.6289 7.88868 12.105 7.99796 14.1561C8.05341 15.1965 8.57172 16.0915 9.45734 16.6762C10.2061 17.1705 11.1705 17.4122 12.1728 17.3575C13.4964 17.2849 14.5348 16.7799 15.2592 15.8565C15.8094 15.1553 16.1574 14.2465 16.311 13.1014C16.9418 13.4821 17.4093 13.9831 17.6675 14.5853C18.1065 15.609 18.1321 17.2913 16.7595 18.6628C15.5568 19.8643 14.1112 20.384 11.9264 20.4001C9.50295 20.3821 7.67009 19.6049 6.47842 18.09C5.36252 16.6714 4.78582 14.6225 4.7643 12C4.78582 9.37757 5.36252 7.32862 6.47842 5.91009C7.67009 4.39519 9.50291 3.61799 11.9264 3.59998C14.3675 3.61812 16.2323 4.39907 17.4696 5.92127C18.0762 6.66774 18.5336 7.60648 18.8352 8.70102L20.5508 8.24328C20.1853 6.89603 19.6102 5.73509 18.8275 4.77229C17.2413 2.82076 14.9215 1.82078 11.9324 1.80005H11.9204C8.93742 1.82071 6.64354 2.82449 5.10251 4.78347C3.7312 6.52673 3.02384 8.95234 3.00007 11.9929L3 12L3.00007 12.0072C3.02384 15.0477 3.7312 17.4734 5.10251 19.2167C6.64354 21.1756 8.93742 22.1794 11.9204 22.2001H11.9324C14.5844 22.1817 16.4538 21.4873 17.9938 19.9487C20.0086 17.9358 19.9479 15.4127 19.2839 13.8638C18.8074 12.753 17.8991 11.8509 16.6571 11.2551ZM12.0781 15.5602C10.9688 15.6226 9.8164 15.1248 9.75958 14.0583C9.71746 13.2676 10.3223 12.3853 12.1461 12.2802C12.355 12.2682 12.5599 12.2623 12.7613 12.2623C13.4238 12.2623 14.0435 12.3266 14.607 12.4498C14.3968 15.0744 13.1641 15.5006 12.0781 15.5602Z" fill="white"/>
</svg>
